# xmcd
#
# Track frame offsets:
#	150
#	15880
#	25768
#	37239
#	47173
#	59734
#	71264
#	81680
#	90692
#	101584
#	117715
#	134695
#	148457
#	163722
#	175032
#	184628
#	196893
#	207387
#
# Disc length: 2956
#
# Revision: 1
# Processed by: cddbd v1.5.1PL0 Copyright (c) Steve Scherf et al.
# Submitted via: dBpowerAMP V4.0
# Normalized: r0:TDELIM( - )
#
DISCID=100b8a12
DTITLE=Various Artist - The Best of Country cd2
DYEAR=2002
DGENRE=Country
TTITLE0=Billie Jo Spears - Blanket on the ground
TTITLE1=Hank Locklin - Please help me I'm falling
TTITLE2=Patsy Cline - Walking after midnight
TTITLE3=Sandy Posey - What a woman won't do
TTITLE4=Frankie Laine - High Noon
TTITLE5=Freddy Fender - Before the next teardrop falls
TTITLE6=Buck Owens - Excuse me
TTITLE7=Roy Drusky - Peel me a nanner
TTITLE8=Sammi Smith - Help me make it through the night
TTITLE9=Lynn Anderson - The devil went down to Georgia
TTITLE10=Razzy Bailey - Teddy Bear
TTITLE11=Flying Burrito Brothers - Another shade of grey
TTITLE12=Bobby Bare - Leaving on a jet plane
TTITLE13=Stoney Cooper and Wilma Lee - Big Midnight Special
TTITLE14=Ned Miller - From a Jack to a King
TTITLE15=Merle Haggard - Okie from Muskogee
TTITLE16=Barbara Mandrell - The wayward wind
TTITLE17=Glen Campbell - Rhinestone Cowboy
EXTD=
EXTT0=
EXTT1=
EXTT2=
EXTT3=
EXTT4=
EXTT5=
EXTT6=
EXTT7=
EXTT8=
EXTT9=
EXTT10=
EXTT11=
EXTT12=
EXTT13=
EXTT14=
EXTT15=
EXTT16=
EXTT17=
PLAYORDER=
